<svg width="100" height="100" viewBox="0 0 100 100" fill="none" xmlns="http://www.w3.org/2000/svg">
<g clip-path="url(#clip0_99_5)">
<path d="M40.2813 73.05V39.7125H36.325C33.4945 41.2282 30.7564 42.9103 28.125 44.75V49.0938C30.4688 47.4875 34.1812 45.2188 35.9875 44.2375H36.0625V73.05H40.2813ZM47.7062 64.8938C48 68.8938 51.4188 73.6812 58.35 73.6812C66.2125 73.6812 70.85 67.0188 70.85 55.7375C70.85 43.65 65.9688 39.0625 58.6438 39.0625C52.8563 39.0625 47.4125 43.2625 47.4125 50.3688C47.4125 57.6187 52.5625 61.4313 57.8875 61.4313C62.55 61.4313 65.575 59.0812 66.5313 56.4937H66.7C66.675 64.7187 63.8187 70.0188 58.5437 70.0188C54.3937 70.0188 52.2438 67.2063 51.9813 64.8938H47.7062ZM66.1625 50.4125C66.1625 54.7625 62.6688 57.7875 58.7625 57.7875C55.0063 57.7875 51.6125 55.3937 51.6125 50.2875C51.6125 45.1437 55.25 42.725 58.9125 42.725C62.8687 42.725 66.1625 45.2125 66.1625 50.4125Z" fill="black"/>
<path d="M21.875 0C22.7038 0 23.4987 0.32924 24.0847 0.915291C24.6708 1.50134 25 2.2962 25 3.125V6.25H75V3.125C75 2.2962 75.3292 1.50134 75.9153 0.915291C76.5013 0.32924 77.2962 0 78.125 0C78.9538 0 79.7487 0.32924 80.3347 0.915291C80.9208 1.50134 81.25 2.2962 81.25 3.125V6.25H87.5C90.8152 6.25 93.9946 7.56696 96.3388 9.91117C98.683 12.2554 100 15.4348 100 18.75V87.5C100 90.8152 98.683 93.9946 96.3388 96.3388C93.9946 98.683 90.8152 100 87.5 100H12.5C9.18479 100 6.00537 98.683 3.66117 96.3388C1.31696 93.9946 0 90.8152 0 87.5V18.75C0 15.4348 1.31696 12.2554 3.66117 9.91117C6.00537 7.56696 9.18479 6.25 12.5 6.25H18.75V3.125C18.75 2.2962 19.0792 1.50134 19.6653 0.915291C20.2513 0.32924 21.0462 0 21.875 0ZM6.25 25V87.5C6.25 89.1576 6.90848 90.7473 8.08058 91.9194C9.25268 93.0915 10.8424 93.75 12.5 93.75H87.5C89.1576 93.75 90.7473 93.0915 91.9194 91.9194C93.0915 90.7473 93.75 89.1576 93.75 87.5V25H6.25Z" fill="black"/>
</g>
<defs>
<clipPath id="clip0_99_5">
<rect width="100" height="100" fill="white"/>
</clipPath>
</defs>
</svg>
