<svg width="20" height="20" viewBox="0 0 20 20" fill="none" xmlns="http://www.w3.org/2000/svg">
<path d="M15.175 10.9413L8.3225 16.9363C7.515 17.6438 6.25 17.0688 6.25 15.995V4.00501C6.24979 3.7647 6.31886 3.52943 6.44893 3.32737C6.57899 3.12531 6.76455 2.96502 6.98337 2.8657C7.20219 2.76638 7.445 2.73224 7.68272 2.76736C7.92045 2.80249 8.14301 2.9054 8.32375 3.06376L15.1738 9.05876C15.308 9.17609 15.4156 9.32078 15.4894 9.48312C15.5631 9.64547 15.6012 9.82171 15.6012 10C15.6012 10.1783 15.5631 10.3546 15.4894 10.5169C15.4156 10.6792 15.308 10.8239 15.1738 10.9413H15.175Z" fill="#000000"/>
</svg>
