<svg width="100" height="100" viewBox="0 0 100 100" fill="none" xmlns="http://www.w3.org/2000/svg">
<path fill-rule="evenodd" clip-rule="evenodd" d="M10.2875 29.0375C10.5778 28.7464 10.9226 28.5156 11.3023 28.358C11.6819 28.2005 12.0889 28.1194 12.5 28.1194C12.911 28.1194 13.318 28.2005 13.6977 28.358C14.0773 28.5156 14.4222 28.7464 14.7125 29.0375L50 64.3312L85.2875 29.0375C85.578 28.7469 85.923 28.5164 86.3026 28.3592C86.6822 28.202 87.0891 28.121 87.5 28.121C87.9109 28.121 88.3177 28.202 88.6974 28.3592C89.077 28.5164 89.4219 28.7469 89.7125 29.0375C90.003 29.328 90.2335 29.673 90.3907 30.0526C90.548 30.4322 90.6289 30.8391 90.6289 31.25C90.6289 31.6609 90.548 32.0677 90.3907 32.4474C90.2335 32.827 90.003 33.1719 89.7125 33.4625L52.2125 70.9625C51.9222 71.2535 51.5773 71.4844 51.1977 71.6419C50.818 71.7995 50.411 71.8806 50 71.8806C49.5889 71.8806 49.1819 71.7995 48.8023 71.6419C48.4226 71.4844 48.0778 71.2535 47.7875 70.9625L10.2875 33.4625C9.99645 33.1722 9.76556 32.8273 9.60802 32.4477C9.45048 32.068 9.36938 31.661 9.36938 31.25C9.36938 30.8389 9.45048 30.4319 9.60802 30.0523C9.76556 29.6726 9.99645 29.3278 10.2875 29.0375Z" fill="black"/>
</svg>
