<svg width="100" height="100" viewBox="0 0 100 100" fill="none" xmlns="http://www.w3.org/2000/svg">
<path d="M43.75 12.5C43.75 14.1576 43.0915 15.7473 41.9194 16.9194C40.7473 18.0915 39.1576 18.75 37.5 18.75C35.8424 18.75 34.2527 18.0915 33.0806 16.9194C31.9085 15.7473 31.25 14.1576 31.25 12.5C31.25 10.8424 31.9085 9.25268 33.0806 8.08058C34.2527 6.90848 35.8424 6.25 37.5 6.25C39.1576 6.25 40.7473 6.90848 41.9194 8.08058C43.0915 9.25268 43.75 10.8424 43.75 12.5ZM62.5 12.5C62.5 14.1576 61.8415 15.7473 60.6694 16.9194C59.4973 18.0915 57.9076 18.75 56.25 18.75C54.5924 18.75 53.0027 18.0915 51.8306 16.9194C50.6585 15.7473 50 14.1576 50 12.5C50 10.8424 50.6585 9.25268 51.8306 8.08058C53.0027 6.90848 54.5924 6.25 56.25 6.25C57.9076 6.25 59.4973 6.90848 60.6694 8.08058C61.8415 9.25268 62.5 10.8424 62.5 12.5ZM43.75 31.25C43.75 32.9076 43.0915 34.4973 41.9194 35.6694C40.7473 36.8415 39.1576 37.5 37.5 37.5C35.8424 37.5 34.2527 36.8415 33.0806 35.6694C31.9085 34.4973 31.25 32.9076 31.25 31.25C31.25 29.5924 31.9085 28.0027 33.0806 26.8306C34.2527 25.6585 35.8424 25 37.5 25C39.1576 25 40.7473 25.6585 41.9194 26.8306C43.0915 28.0027 43.75 29.5924 43.75 31.25ZM62.5 31.25C62.5 32.9076 61.8415 34.4973 60.6694 35.6694C59.4973 36.8415 57.9076 37.5 56.25 37.5C54.5924 37.5 53.0027 36.8415 51.8306 35.6694C50.6585 34.4973 50 32.9076 50 31.25C50 29.5924 50.6585 28.0027 51.8306 26.8306C53.0027 25.6585 54.5924 25 56.25 25C57.9076 25 59.4973 25.6585 60.6694 26.8306C61.8415 28.0027 62.5 29.5924 62.5 31.25ZM43.75 50C43.75 51.6576 43.0915 53.2473 41.9194 54.4194C40.7473 55.5915 39.1576 56.25 37.5 56.25C35.8424 56.25 34.2527 55.5915 33.0806 54.4194C31.9085 53.2473 31.25 51.6576 31.25 50C31.25 48.3424 31.9085 46.7527 33.0806 45.5806C34.2527 44.4085 35.8424 43.75 37.5 43.75C39.1576 43.75 40.7473 44.4085 41.9194 45.5806C43.0915 46.7527 43.75 48.3424 43.75 50ZM62.5 50C62.5 51.6576 61.8415 53.2473 60.6694 54.4194C59.4973 55.5915 57.9076 56.25 56.25 56.25C54.5924 56.25 53.0027 55.5915 51.8306 54.4194C50.6585 53.2473 50 51.6576 50 50C50 48.3424 50.6585 46.7527 51.8306 45.5806C53.0027 44.4085 54.5924 43.75 56.25 43.75C57.9076 43.75 59.4973 44.4085 60.6694 45.5806C61.8415 46.7527 62.5 48.3424 62.5 50ZM43.75 68.75C43.75 70.4076 43.0915 71.9973 41.9194 73.1694C40.7473 74.3415 39.1576 75 37.5 75C35.8424 75 34.2527 74.3415 33.0806 73.1694C31.9085 71.9973 31.25 70.4076 31.25 68.75C31.25 67.0924 31.9085 65.5027 33.0806 64.3306C34.2527 63.1585 35.8424 62.5 37.5 62.5C39.1576 62.5 40.7473 63.1585 41.9194 64.3306C43.0915 65.5027 43.75 67.0924 43.75 68.75ZM62.5 68.75C62.5 70.4076 61.8415 71.9973 60.6694 73.1694C59.4973 74.3415 57.9076 75 56.25 75C54.5924 75 53.0027 74.3415 51.8306 73.1694C50.6585 71.9973 50 70.4076 50 68.75C50 67.0924 50.6585 65.5027 51.8306 64.3306C53.0027 63.1585 54.5924 62.5 56.25 62.5C57.9076 62.5 59.4973 63.1585 60.6694 64.3306C61.8415 65.5027 62.5 67.0924 62.5 68.75ZM43.75 87.5C43.75 89.1576 43.0915 90.7473 41.9194 91.9194C40.7473 93.0915 39.1576 93.75 37.5 93.75C35.8424 93.75 34.2527 93.0915 33.0806 91.9194C31.9085 90.7473 31.25 89.1576 31.25 87.5C31.25 85.8424 31.9085 84.2527 33.0806 83.0806C34.2527 81.9085 35.8424 81.25 37.5 81.25C39.1576 81.25 40.7473 81.9085 41.9194 83.0806C43.0915 84.2527 43.75 85.8424 43.75 87.5ZM62.5 87.5C62.5 89.1576 61.8415 90.7473 60.6694 91.9194C59.4973 93.0915 57.9076 93.75 56.25 93.75C54.5924 93.75 53.0027 93.0915 51.8306 91.9194C50.6585 90.7473 50 89.1576 50 87.5C50 85.8424 50.6585 84.2527 51.8306 83.0806C53.0027 81.9085 54.5924 81.25 56.25 81.25C57.9076 81.25 59.4973 81.9085 60.6694 83.0806C61.8415 84.2527 62.5 85.8424 62.5 87.5Z" fill="black"/>
</svg>
