<svg width="100" height="100" viewBox="0 0 100 100" fill="none" xmlns="http://www.w3.org/2000/svg">
<path d="M37.5 21.875C38.3288 21.875 39.1237 22.2042 39.7097 22.7903C40.2958 23.3763 40.625 24.1712 40.625 25V75C40.625 75.8288 40.2958 76.6237 39.7097 77.2097C39.1237 77.7958 38.3288 78.125 37.5 78.125C36.6712 78.125 35.8763 77.7958 35.2903 77.2097C34.7042 76.6237 34.375 75.8288 34.375 75V25C34.375 24.1712 34.7042 23.3763 35.2903 22.7903C35.8763 22.2042 36.6712 21.875 37.5 21.875ZM62.5 21.875C63.3288 21.875 64.1237 22.2042 64.7097 22.7903C65.2958 23.3763 65.625 24.1712 65.625 25V75C65.625 75.8288 65.2958 76.6237 64.7097 77.2097C64.1237 77.7958 63.3288 78.125 62.5 78.125C61.6712 78.125 60.8763 77.7958 60.2903 77.2097C59.7042 76.6237 59.375 75.8288 59.375 75V25C59.375 24.1712 59.7042 23.3763 60.2903 22.7903C60.8763 22.2042 61.6712 21.875 62.5 21.875Z" fill="black"/>
</svg>
