<svg width="100" height="100" viewBox="0 0 100 100" fill="none" xmlns="http://www.w3.org/2000/svg">
<path d="M21.875 31.25C21.875 28.7636 22.8627 26.379 24.6209 24.6209C26.379 22.8627 28.7636 21.875 31.25 21.875H68.75C71.2364 21.875 73.621 22.8627 75.3791 24.6209C77.1373 26.379 78.125 28.7636 78.125 31.25V68.75C78.125 71.2364 77.1373 73.621 75.3791 75.3791C73.621 77.1373 71.2364 78.125 68.75 78.125H31.25C28.7636 78.125 26.379 77.1373 24.6209 75.3791C22.8627 73.621 21.875 71.2364 21.875 68.75V31.25ZM31.25 28.125C30.4212 28.125 29.6263 28.4542 29.0403 29.0403C28.4542 29.6263 28.125 30.4212 28.125 31.25V68.75C28.125 69.5788 28.4542 70.3737 29.0403 70.9597C29.6263 71.5458 30.4212 71.875 31.25 71.875H68.75C69.5788 71.875 70.3737 71.5458 70.9597 70.9597C71.5458 70.3737 71.875 69.5788 71.875 68.75V31.25C71.875 30.4212 71.5458 29.6263 70.9597 29.0403C70.3737 28.4542 69.5788 28.125 68.75 28.125H31.25Z" fill="black"/>
</svg>
